<svg data-v-423bf9ae="" xmlns="http://www.w3.org/2000/svg" viewBox="0 0 417.73333231608075 60" class="font"><!----><!----><!----><g data-v-423bf9ae="" id="89fd8a3c-eac3-4c30-84d7-6797df6c928e" fill="white" transform="matrix(6.666666666666667,0,0,6.666666666666667,-4.20000422000885,0)"><path d="M0.63 1.86L0.63 8.86L0.63 8.86Q1.47 8.86 2.31 8.86L2.31 8.86L2.31 8.86Q3.15 8.86 3.99 8.86L3.99 8.86L3.99 8.86Q5.22 8.86 5.95 8.37L5.95 8.37L5.95 8.37Q6.68 7.88 6.68 6.86L6.68 6.86L6.68 6.86Q6.68 6.27 6.38 5.87L6.38 5.87L6.38 5.87Q6.08 5.47 5.52 5.25L5.52 5.25L5.52 5.25Q5.94 5.08 6.17 4.75L6.17 4.75L6.17 4.75Q6.40 4.42 6.40 3.85L6.40 3.85L6.40 3.85Q6.40 2.94 5.67 2.40L5.67 2.40L5.67 2.40Q4.94 1.86 3.71 1.86L3.71 1.86L3.71 1.86Q2.94 1.86 2.17 1.86L2.17 1.86L2.17 1.86Q1.40 1.86 0.63 1.86L0.63 1.86ZM2.59 3.33L3.71 3.33L3.71 3.33Q4.00 3.33 4.19 3.51L4.19 3.51L4.19 3.51Q4.37 3.70 4.37 3.99L4.37 3.99L4.37 3.99Q4.37 4.28 4.19 4.44L4.19 4.44L4.19 4.44Q4.00 4.59 3.71 4.59L3.71 4.59L2.59 4.59L2.59 3.33ZM2.59 7.32L2.59 5.92L3.85 5.92L3.85 5.92Q4.26 5.92 4.45 6.12L4.45 6.12L4.45 6.12Q4.65 6.31 4.65 6.61L4.65 6.61L4.65 6.61Q4.65 6.90 4.45 7.11L4.45 7.11L4.45 7.11Q4.26 7.32 3.85 7.32L3.85 7.32L2.59 7.32ZM10.65 5.89L10.65 6.09L10.65 6.09Q10.39 5.94 10.02 5.82L10.02 5.82L10.02 5.82Q9.66 5.71 9.23 5.71L9.23 5.71L9.23 5.71Q8.41 5.71 7.86 6.10L7.86 6.10L7.86 6.10Q7.31 6.48 7.31 7.29L7.31 7.29L7.31 7.29Q7.31 7.98 7.57 8.34L7.57 8.34L7.57 8.34Q7.83 8.71 8.23 8.86L8.23 8.86L8.23 8.86Q8.62 9.00 9.02 9.00L9.02 9.00L9.02 9.00Q9.56 9.00 9.98 8.80L9.98 8.80L9.98 8.80Q10.39 8.60 10.65 8.30L10.65 8.30L10.65 8.86L12.54 8.86L12.54 5.47L12.54 5.47Q12.54 4.45 12.01 3.89L12.01 3.89L12.01 3.89Q11.47 3.33 10.56 3.33L10.56 3.33L10.56 3.33Q9.74 3.33 9.02 3.65L9.02 3.65L9.02 3.65Q8.29 3.96 7.66 4.35L7.66 4.35L8.36 5.33L8.36 5.33Q8.78 5.04 9.22 4.92L9.22 4.92L9.22 4.92Q9.66 4.80 9.86 4.80L9.86 4.80L9.86 4.80Q10.36 4.80 10.51 5.05L10.51 5.05L10.51 5.05Q10.65 5.29 10.65 5.89L10.65 5.89ZM10.65 7.00L10.65 7.00L10.65 7.56L10.65 7.56Q10.51 7.71 10.31 7.83L10.31 7.83L10.31 7.83Q10.11 7.94 9.86 7.94L9.86 7.94L9.86 7.94Q9.56 7.94 9.45 7.72L9.45 7.72L9.45 7.72Q9.34 7.50 9.34 7.31L9.34 7.31L9.34 7.31Q9.34 7.11 9.48 6.93L9.48 6.93L9.48 6.93Q9.63 6.75 9.93 6.75L9.93 6.75L9.93 6.75Q10.23 6.75 10.39 6.83L10.39 6.83L10.39 6.83Q10.56 6.92 10.65 7.00ZM13.66 1.44L13.66 8.86L15.55 8.86L15.55 6.17L17.58 8.86L19.89 8.86L17.51 5.71L19.75 3.47L17.44 3.47L15.55 5.36L15.55 1.44L13.66 1.44ZM20.45 6.17L20.45 6.17L20.45 6.17Q20.45 7.06 20.85 7.69L20.85 7.69L20.85 7.69Q21.25 8.33 21.93 8.67L21.93 8.67L21.93 8.67Q22.61 9.00 23.42 9.00L23.42 9.00L23.42 9.00Q24.14 9.00 24.72 8.78L24.72 8.78L24.72 8.78Q25.31 8.55 25.69 8.09L25.69 8.09L24.85 6.79L24.85 6.79Q24.63 7.14 24.32 7.37L24.32 7.37L24.32 7.37Q24.01 7.60 23.56 7.60L23.56 7.60L23.56 7.60Q23.24 7.60 23.00 7.48L23.00 7.48L23.00 7.48Q22.75 7.35 22.58 7.14L22.58 7.14L25.97 5.89L25.97 5.89Q25.97 5.15 25.64 4.57L25.64 4.57L25.64 4.57Q25.31 3.99 24.70 3.66L24.70 3.66L24.70 3.66Q24.09 3.33 23.28 3.33L23.28 3.33L23.28 3.33Q22.47 3.33 21.83 3.68L21.83 3.68L21.83 3.68Q21.18 4.02 20.82 4.66L20.82 4.66L20.82 4.66Q20.45 5.29 20.45 6.17ZM24.35 5.14L24.35 5.14L22.20 5.95L22.20 5.95Q22.23 5.47 22.49 5.08L22.49 5.08L22.49 5.08Q22.75 4.68 23.32 4.68L23.32 4.68L23.32 4.68Q23.67 4.68 23.93 4.80L23.93 4.80L23.93 4.80Q24.19 4.93 24.35 5.14ZM30.65 5.75L31.70 4.35L31.70 4.35Q31.56 4.17 31.37 3.95L31.37 3.95L31.37 3.95Q31.19 3.72 30.93 3.56L30.93 3.56L30.93 3.56Q30.66 3.40 30.27 3.40L30.27 3.40L30.27 3.40Q29.88 3.40 29.47 3.71L29.47 3.71L29.47 3.71Q29.06 4.02 28.76 4.52L28.76 4.52L28.63 3.47L27.02 3.47L27.02 8.86L28.91 8.86L28.91 5.50L28.91 5.50Q29.09 5.32 29.30 5.20L29.30 5.20L29.30 5.20Q29.51 5.08 29.71 5.08L29.71 5.08L29.71 5.08Q30.10 5.08 30.27 5.27L30.27 5.27L30.27 5.27Q30.44 5.46 30.65 5.75L30.65 5.75ZM32.47 3.47L32.47 5.29L34.34 5.29L31.84 8.86L31.84 8.86Q33.17 8.86 34.50 8.86L34.50 8.86L34.50 8.86Q35.83 8.86 37.16 8.86L37.16 8.86L37.16 7.04L35 7.04L37.51 3.47L37.51 3.47Q36.25 3.47 34.99 3.47L34.99 3.47L34.99 3.47Q33.73 3.47 32.47 3.47L32.47 3.47ZM42.48 1.86L42.48 8.86L42.48 8.86Q43.32 8.86 44.16 8.86L44.16 8.86L44.16 8.86Q45.00 8.86 45.84 8.86L45.84 8.86L45.84 8.86Q47.07 8.86 47.80 8.37L47.80 8.37L47.80 8.37Q48.52 7.88 48.52 6.86L48.52 6.86L48.52 6.86Q48.52 6.27 48.22 5.87L48.22 5.87L48.22 5.87Q47.92 5.47 47.36 5.25L47.36 5.25L47.36 5.25Q47.78 5.08 48.01 4.75L48.01 4.75L48.01 4.75Q48.24 4.42 48.24 3.85L48.24 3.85L48.24 3.85Q48.24 2.94 47.52 2.40L47.52 2.40L47.52 2.40Q46.79 1.86 45.56 1.86L45.56 1.86L45.56 1.86Q44.79 1.86 44.02 1.86L44.02 1.86L44.02 1.86Q43.25 1.86 42.48 1.86L42.48 1.86ZM44.44 3.33L45.56 3.33L45.56 3.33Q45.85 3.33 46.03 3.51L46.03 3.51L46.03 3.51Q46.21 3.70 46.21 3.99L46.21 3.99L46.21 3.99Q46.21 4.28 46.03 4.44L46.03 4.44L46.03 4.44Q45.85 4.59 45.56 4.59L45.56 4.59L44.44 4.59L44.44 3.33ZM44.44 7.32L44.44 5.92L45.70 5.92L45.70 5.92Q46.10 5.92 46.30 6.12L46.30 6.12L46.30 6.12Q46.49 6.31 46.49 6.61L46.49 6.61L46.49 6.61Q46.49 6.90 46.30 7.11L46.30 7.11L46.30 7.11Q46.10 7.32 45.70 7.32L45.70 7.32L44.44 7.32ZM49.83 3.47L49.83 8.86L51.72 8.86L51.72 3.47L49.83 3.47ZM49.43 1.34L50.76 2.67L52.11 1.34L50.76 0L49.43 1.34ZM52.95 3.47L52.95 4.87L53.93 4.87L53.93 8.86L55.82 8.86L55.82 4.87L56.94 4.87L56.94 3.47L55.82 3.47L55.82 1.72L53.93 2.56L53.93 3.47L52.95 3.47ZM57.78 6.17L57.78 6.17L57.78 6.17Q57.78 7.06 58.18 7.69L58.18 7.69L58.18 7.69Q58.58 8.33 59.25 8.67L59.25 8.67L59.25 8.67Q59.93 9.00 60.75 9.00L60.75 9.00L60.75 9.00Q61.46 9.00 62.05 8.78L62.05 8.78L62.05 8.78Q62.64 8.55 63.01 8.09L63.01 8.09L62.17 6.79L62.17 6.79Q61.95 7.14 61.64 7.37L61.64 7.37L61.64 7.37Q61.33 7.60 60.89 7.60L60.89 7.60L60.89 7.60Q60.56 7.60 60.32 7.48L60.32 7.48L60.32 7.48Q60.07 7.35 59.91 7.14L59.91 7.14L63.29 5.89L63.29 5.89Q63.29 5.15 62.96 4.57L62.96 4.57L62.96 4.57Q62.64 3.99 62.03 3.66L62.03 3.66L62.03 3.66Q61.42 3.33 60.61 3.33L60.61 3.33L60.61 3.33Q59.79 3.33 59.15 3.68L59.15 3.68L59.15 3.68Q58.51 4.02 58.14 4.66L58.14 4.66L58.14 4.66Q57.78 5.29 57.78 6.17ZM61.67 5.14L61.67 5.14L59.53 5.95L59.53 5.95Q59.56 5.47 59.81 5.08L59.81 5.08L59.81 5.08Q60.07 4.68 60.65 4.68L60.65 4.68L60.65 4.68Q61.00 4.68 61.26 4.80L61.26 4.80L61.26 4.80Q61.52 4.93 61.67 5.14Z"></path></g><!----><!----></svg>